<svg xmlns="http://www.w3.org/2000/svg" viewBox="0 0 748 252.13"><defs><style>.cls-1{fill:#224cff;}</style></defs><title>Luhu-Logo-Blue</title><g id="Layer_2" data-name="Layer 2"><g id="Layer_1-2" data-name="Layer 1"><path class="cls-1" d="M331.61,196.27h46.78q3.49,0,3.48,3.49v6q0,3.49-3.48,3.49h-57.7q-3.48,0-3.48-3.49V44.57q0-3.48,3.48-3.49h7.43q3.49,0,3.49,3.49Z"/><path class="cls-1" d="M568.19,118.68H604V44.57q0-3.48,3.48-3.49h7.43q3.49,0,3.48,3.49V205.8q0,3.49-3.48,3.49h-7.43q-3.49,0-3.48-3.49V131.69H568.19V205.8q0,3.49-3.49,3.49h-7.43q-3.48,0-3.48-3.49V44.57q0-3.48,3.48-3.49h7.43q3.49,0,3.49,3.49Z"/><path class="cls-1" d="M488.74,44.57q0-3.48-3.48-3.49h-7.43q-3.49,0-3.48,3.49V177.22c0,12.78-2.79,20.21-17.89,20.21s-17.89-7.44-17.89-20.21V44.57q0-3.48-3.49-3.49h-7.43q-3.48,0-3.48,3.49V177.22c0,21.14,5.11,33.22,32.29,33.22a32.47,32.47,0,0,0,17.87-5.82v1.17q0,3.48,3.48,3.49h7.43q3.49,0,3.49-3.49s0-28.33,0-28.57Z"/><path class="cls-1" d="M748,44.57q0-3.48-3.48-3.49h-7.43q-3.49,0-3.48,3.49V177.22c0,12.78-2.79,20.21-17.89,20.21s-17.89-7.44-17.89-20.21V44.57q0-3.48-3.49-3.49H686.9q-3.48,0-3.48,3.49V177.22c0,21.14,5.11,33.22,32.29,33.22a32.47,32.47,0,0,0,17.87-5.82v1.17q0,3.48,3.48,3.49h7.43q3.49,0,3.49-3.49s0-28.33,0-28.57Z"/><path class="cls-1" d="M126.06,157.29,94.84,126.06l31.23-31.23,31.23,31.23Zm-17.67-31.23,17.67,17.68,17.68-17.68-17.68-17.68Z"/><path class="cls-1" d="M126.06,188a14.33,14.33,0,0,1-10.17-4.2L68.32,136.23a14.39,14.39,0,0,1,0-20.33L115.9,68.32a14.39,14.39,0,0,1,20.33,0l47.58,47.58a14.39,14.39,0,0,1,0,20.33l-47.58,47.58A14.33,14.33,0,0,1,126.06,188Zm-3.39-11a4.8,4.8,0,0,0,6.78,0L177,129.45a4.8,4.8,0,0,0,0-6.78L129.45,75.09a4.8,4.8,0,0,0-6.78,0L75.1,122.67a4.8,4.8,0,0,0,0,6.78Z"/><path class="cls-1" d="M126.06,212.79a42.85,42.85,0,0,1-30.5-12.63L52,156.56a43.18,43.18,0,0,1,0-61L95.57,52a43.13,43.13,0,0,1,61,0l43.6,43.6a43.18,43.18,0,0,1,0,61l-43.6,43.6A42.84,42.84,0,0,1,126.06,212.79Zm-23.72-19.41a33.54,33.54,0,0,0,47.44,0l43.6-43.6a33.58,33.58,0,0,0,0-47.44l-43.6-43.6a33.54,33.54,0,0,0-47.44,0l-43.6,43.6a33.58,33.58,0,0,0,0,47.44Z"/><path class="cls-1" d="M126.06,233.59a80.93,80.93,0,0,1-57.6-23.86h0L42.4,183.67a81.47,81.47,0,0,1,0-115.21L68.46,42.39a81.46,81.46,0,0,1,115.21,0l26.06,26.06a81.47,81.47,0,0,1,0,115.21l-26.06,26.06A80.93,80.93,0,0,1,126.06,233.59Zm0-205.47A71.41,71.41,0,0,0,75.24,49.17L49.18,75.23a71.88,71.88,0,0,0,0,101.66L75.24,203a71.88,71.88,0,0,0,101.66,0L203,176.89a71.88,71.88,0,0,0,0-101.66L176.89,49.17A71.41,71.41,0,0,0,126.06,28.12Z"/><path class="cls-1" d="M126.06,252.13A126.06,126.06,0,1,1,252.13,126.06,126.21,126.21,0,0,1,126.06,252.13Zm0-242.27A116.21,116.21,0,1,0,242.27,126.06,116.34,116.34,0,0,0,126.06,9.85Z"/></g></g></svg>