<svg xmlns="http://www.w3.org/2000/svg" viewBox="0 0 486.01 486"><defs><style>.cls-1{fill:#224cff;}</style></defs><title>Luhu-Brandmark-Blue</title><g id="Layer_2" data-name="Layer 2"><g id="Layer_1-2" data-name="Layer 1"><path class="cls-1" d="M243,303.2,182.81,243,243,182.8l60.2,60.2ZM208.93,243,243,277.07,277.08,243,243,208.93Z"/><path class="cls-1" d="M243,362.42a27.63,27.63,0,0,1-19.6-8.1L131.69,262.6a27.74,27.74,0,0,1,0-39.19l91.71-91.72a27.74,27.74,0,0,1,39.19,0l91.72,91.72a27.74,27.74,0,0,1,0,39.19L262.6,354.31A27.62,27.62,0,0,1,243,362.42Zm-6.53-21.17a9.25,9.25,0,0,0,13.06,0l91.72-91.72a9.25,9.25,0,0,0,0-13.06l-91.72-91.72a9.25,9.25,0,0,0-13.06,0l-91.71,91.72a9.25,9.25,0,0,0,0,13.06Z"/><path class="cls-1" d="M243,410.18a82.6,82.6,0,0,1-58.79-24.35l-84-84a83.24,83.24,0,0,1,0-117.58l84-84a83.14,83.14,0,0,1,117.58,0l84,84a83.24,83.24,0,0,1,0,117.58l-84,84A82.59,82.59,0,0,1,243,410.18Zm-45.72-37.42a64.66,64.66,0,0,0,91.45,0l84-84a64.74,64.74,0,0,0,0-91.45l-84-84a64.66,64.66,0,0,0-91.45,0l-84,84a64.74,64.74,0,0,0,0,91.45Z"/><path class="cls-1" d="M243,450.27a156,156,0,0,1-111-46h0L81.73,354a157,157,0,0,1,0-222.09L132,81.72a157,157,0,0,1,222.08,0L404.28,132a157,157,0,0,1,0,222.09L354,404.28A156,156,0,0,1,243,450.27ZM243,54.2a137.64,137.64,0,0,0-98,40.58L94.79,145a138.56,138.56,0,0,0,0,196L145,391.22a138.56,138.56,0,0,0,196,0L391.22,341a138.56,138.56,0,0,0,0-196L341,94.78A137.65,137.65,0,0,0,243,54.2Z"/><path class="cls-1" d="M243,486C109,486,0,377,0,243S109,0,243,0,486,109,486,243,377,486,243,486Zm0-467C119.48,19,19,119.48,19,243S119.48,467,243,467,467,366.52,467,243,366.52,19,243,19Z"/></g></g></svg>